<svg id="visual" viewBox="0 0 960 540" width="960" height="540" xmlns="http://www.w3.org/2000/svg" xmlns:xlink="http://www.w3.org/1999/xlink" version="1.1"><rect x="0" y="0" width="960" height="540" fill="#002e51"></rect><path d="M0 301L22.8 303.3C45.7 305.7 91.3 310.3 137 297.2C182.7 284 228.3 253 274 248.2C319.7 243.3 365.3 264.7 411.2 275.8C457 287 503 288 548.8 280C594.7 272 640.3 255 686 250C731.7 245 777.3 252 823 266.3C868.7 280.7 914.3 302.3 937.2 313.2L960 324L960 541L937.2 541C914.3 541 868.7 541 823 541C777.3 541 731.7 541 686 541C640.3 541 594.7 541 548.8 541C503 541 457 541 411.2 541C365.3 541 319.7 541 274 541C228.3 541 182.7 541 137 541C91.3 541 45.7 541 22.8 541L0 541Z" fill="#856bfc"></path><path d="M0 253L22.8 253.3C45.7 253.7 91.3 254.3 137 259C182.7 263.7 228.3 272.3 274 283.5C319.7 294.7 365.3 308.3 411.2 303.3C457 298.3 503 274.7 548.8 268.2C594.7 261.7 640.3 272.3 686 276.7C731.7 281 777.3 279 823 278C868.7 277 914.3 277 937.2 277L960 277L960 541L937.2 541C914.3 541 868.7 541 823 541C777.3 541 731.7 541 686 541C640.3 541 594.7 541 548.8 541C503 541 457 541 411.2 541C365.3 541 319.7 541 274 541C228.3 541 182.7 541 137 541C91.3 541 45.7 541 22.8 541L0 541Z" fill="#8561eb"></path><path d="M0 289L22.8 291.2C45.7 293.3 91.3 297.7 137 304.3C182.7 311 228.3 320 274 315.3C319.7 310.7 365.3 292.3 411.2 292.5C457 292.7 503 311.3 548.8 318.3C594.7 325.3 640.3 320.7 686 312.7C731.7 304.7 777.3 293.3 823 300.3C868.7 307.3 914.3 332.7 937.2 345.3L960 358L960 541L937.2 541C914.3 541 868.7 541 823 541C777.3 541 731.7 541 686 541C640.3 541 594.7 541 548.8 541C503 541 457 541 411.2 541C365.3 541 319.7 541 274 541C228.3 541 182.7 541 137 541C91.3 541 45.7 541 22.8 541L0 541Z" fill="#8357da"></path><path d="M0 316L22.8 323C45.7 330 91.3 344 137 351.3C182.7 358.7 228.3 359.3 274 354.3C319.7 349.3 365.3 338.7 411.2 339C457 339.3 503 350.7 548.8 345C594.7 339.3 640.3 316.7 686 311.2C731.7 305.7 777.3 317.3 823 330.5C868.7 343.7 914.3 358.3 937.2 365.7L960 373L960 541L937.2 541C914.3 541 868.7 541 823 541C777.3 541 731.7 541 686 541C640.3 541 594.7 541 548.8 541C503 541 457 541 411.2 541C365.3 541 319.7 541 274 541C228.3 541 182.7 541 137 541C91.3 541 45.7 541 22.8 541L0 541Z" fill="#814eca"></path><path d="M0 381L22.8 374.2C45.7 367.3 91.3 353.7 137 345.2C182.7 336.7 228.3 333.3 274 333.2C319.7 333 365.3 336 411.2 341.2C457 346.3 503 353.7 548.8 350.7C594.7 347.7 640.3 334.3 686 333C731.7 331.7 777.3 342.3 823 352.8C868.7 363.3 914.3 373.7 937.2 378.8L960 384L960 541L937.2 541C914.3 541 868.7 541 823 541C777.3 541 731.7 541 686 541C640.3 541 594.7 541 548.8 541C503 541 457 541 411.2 541C365.3 541 319.7 541 274 541C228.3 541 182.7 541 137 541C91.3 541 45.7 541 22.8 541L0 541Z" fill="#7e45ba"></path><path d="M0 351L22.8 352.2C45.7 353.3 91.3 355.7 137 361.7C182.7 367.7 228.3 377.3 274 382.5C319.7 387.7 365.3 388.3 411.2 383.5C457 378.7 503 368.3 548.8 366.5C594.7 364.7 640.3 371.3 686 376C731.7 380.7 777.3 383.3 823 386.7C868.7 390 914.3 394 937.2 396L960 398L960 541L937.2 541C914.3 541 868.7 541 823 541C777.3 541 731.7 541 686 541C640.3 541 594.7 541 548.8 541C503 541 457 541 411.2 541C365.3 541 319.7 541 274 541C228.3 541 182.7 541 137 541C91.3 541 45.7 541 22.8 541L0 541Z" fill="#793bab"></path><path d="M0 427L22.8 427.8C45.7 428.7 91.3 430.3 137 430.3C182.7 430.3 228.3 428.7 274 424.3C319.7 420 365.3 413 411.2 410.5C457 408 503 410 548.8 407.2C594.7 404.3 640.3 396.7 686 393.2C731.7 389.7 777.3 390.3 823 388.5C868.7 386.7 914.3 382.3 937.2 380.2L960 378L960 541L937.2 541C914.3 541 868.7 541 823 541C777.3 541 731.7 541 686 541C640.3 541 594.7 541 548.8 541C503 541 457 541 411.2 541C365.3 541 319.7 541 274 541C228.3 541 182.7 541 137 541C91.3 541 45.7 541 22.8 541L0 541Z" fill="#74339b"></path><path d="M0 434L22.8 427.8C45.7 421.7 91.3 409.3 137 405.3C182.7 401.3 228.3 405.7 274 406.2C319.7 406.7 365.3 403.3 411.2 406.2C457 409 503 418 548.8 421.2C594.7 424.3 640.3 421.7 686 418.2C731.7 414.7 777.3 410.3 823 413.8C868.7 417.3 914.3 428.7 937.2 434.3L960 440L960 541L937.2 541C914.3 541 868.7 541 823 541C777.3 541 731.7 541 686 541C640.3 541 594.7 541 548.8 541C503 541 457 541 411.2 541C365.3 541 319.7 541 274 541C228.3 541 182.7 541 137 541C91.3 541 45.7 541 22.8 541L0 541Z" fill="#6f2a8d"></path><path d="M0 467L22.8 459.7C45.7 452.3 91.3 437.7 137 435.5C182.7 433.3 228.3 443.7 274 448.5C319.7 453.3 365.3 452.7 411.2 449.2C457 445.7 503 439.3 548.8 439.5C594.7 439.7 640.3 446.3 686 444.5C731.7 442.7 777.3 432.3 823 431.7C868.7 431 914.3 440 937.2 444.5L960 449L960 541L937.2 541C914.3 541 868.7 541 823 541C777.3 541 731.7 541 686 541C640.3 541 594.7 541 548.8 541C503 541 457 541 411.2 541C365.3 541 319.7 541 274 541C228.3 541 182.7 541 137 541C91.3 541 45.7 541 22.8 541L0 541Z" fill="#69227e"></path><path d="M0 471L22.8 468.5C45.7 466 91.3 461 137 459.7C182.7 458.3 228.3 460.7 274 463.5C319.7 466.3 365.3 469.7 411.2 467.7C457 465.7 503 458.3 548.8 458.5C594.7 458.7 640.3 466.3 686 467C731.7 467.7 777.3 461.3 823 461.2C868.7 461 914.3 467 937.2 470L960 473L960 541L937.2 541C914.3 541 868.7 541 823 541C777.3 541 731.7 541 686 541C640.3 541 594.7 541 548.8 541C503 541 457 541 411.2 541C365.3 541 319.7 541 274 541C228.3 541 182.7 541 137 541C91.3 541 45.7 541 22.8 541L0 541Z" fill="#621970"></path><path d="M0 498L22.8 497.2C45.7 496.3 91.3 494.7 137 490C182.7 485.3 228.3 477.7 274 475.5C319.7 473.3 365.3 476.7 411.2 482.5C457 488.3 503 496.7 548.8 499.8C594.7 503 640.3 501 686 501.2C731.7 501.3 777.3 503.7 823 501.5C868.7 499.3 914.3 492.7 937.2 489.3L960 486L960 541L937.2 541C914.3 541 868.7 541 823 541C777.3 541 731.7 541 686 541C640.3 541 594.7 541 548.8 541C503 541 457 541 411.2 541C365.3 541 319.7 541 274 541C228.3 541 182.7 541 137 541C91.3 541 45.7 541 22.8 541L0 541Z" fill="#5b1063"></path><path d="M0 518L22.8 515.5C45.7 513 91.3 508 137 505.3C182.7 502.7 228.3 502.3 274 505C319.7 507.7 365.3 513.3 411.2 513.8C457 514.3 503 509.7 548.8 507.2C594.7 504.7 640.3 504.3 686 505C731.7 505.7 777.3 507.3 823 510.5C868.7 513.7 914.3 518.3 937.2 520.7L960 523L960 541L937.2 541C914.3 541 868.7 541 823 541C777.3 541 731.7 541 686 541C640.3 541 594.7 541 548.8 541C503 541 457 541 411.2 541C365.3 541 319.7 541 274 541C228.3 541 182.7 541 137 541C91.3 541 45.7 541 22.8 541L0 541Z" fill="#530756"></path></svg>