<svg id="visual" viewBox="0 0 960 540" width="960" height="540" xmlns="http://www.w3.org/2000/svg" xmlns:xlink="http://www.w3.org/1999/xlink" version="1.1"><rect x="0" y="0" width="960" height="540" fill="#002233"></rect><path d="M0 337L14.5 326.5C29 316 58 295 87.2 288.3C116.3 281.7 145.7 289.3 174.8 304C204 318.7 233 340.3 262 342.5C291 344.7 320 327.3 349 321.7C378 316 407 322 436.2 316.8C465.3 311.7 494.7 295.3 523.8 294.3C553 293.3 582 307.7 611 316.3C640 325 669 328 698 322C727 316 756 301 785.2 307.2C814.3 313.3 843.7 340.7 872.8 339.3C902 338 931 308 945.5 293L960 278L960 541L945.5 541C931 541 902 541 872.8 541C843.7 541 814.3 541 785.2 541C756 541 727 541 698 541C669 541 640 541 611 541C582 541 553 541 523.8 541C494.7 541 465.3 541 436.2 541C407 541 378 541 349 541C320 541 291 541 262 541C233 541 204 541 174.8 541C145.7 541 116.3 541 87.2 541C58 541 29 541 14.5 541L0 541Z" fill="#0066FF" stroke-linecap="round" stroke-linejoin="miter"></path></svg>