<?xml version="1.0" standalone="no"?><!DOCTYPE svg PUBLIC "-//W3C//DTD SVG 1.1//EN" "http://www.w3.org/Graphics/SVG/1.1/DTD/svg11.dtd"><svg class="icon" width="240px" height="240.00px" viewBox="0 0 1024 1024" version="1.1" xmlns="http://www.w3.org/2000/svg"><path fill="#515151" d="M512.32 0.32C229.76 0.32 0.832 229.44 0.832 512.128 0.832 794.88 229.76 1024 512.32 1024c282.432 0 511.424-229.12 511.424-511.872C1023.744 229.44 794.816 0.32 512.32 0.32z m241.6 462.528a225.408 225.408 0 0 1-131.2-41.408c0 59.008 0 117.888 0.512 176.896 0 7.872 0.384 15.744-0.256 23.552a190.272 190.272 0 0 1-74.88 137.344c-26.24 19.2-57.856 30.016-90.56 30.848a198.912 198.912 0 0 1-48.96-3.968 171.264 171.264 0 0 1-64.64-28.608 175.808 175.808 0 0 1-73.92-148.48 176.256 176.256 0 0 1 83.648-144.576 173.888 173.888 0 0 1 115.584-24.32c0.064 7.488-0.192 14.976 0.128 22.4 0.576 9.344 0.064 18.688 0.256 28.032v47.68A67.328 67.328 0 0 0 432 537.088c-14.72 3.456-28.864 9.728-40.512 19.52a69.707 69.707 0 0 0-17.216 21.568 82.112 82.112 0 0 0-8.192 45.76c1.792 15.232 8.128 29.568 18.24 41.216 6.784 8.064 15.232 14.464 24.064 19.84 24.32 13.76 56 12.288 79.488-2.752 22.72-14.08 37.44-40.128 37.504-66.944V373.12c0.384-46.272 0.064-92.544 0.256-138.752h95.488c-0.256 8.128 0.768 16.256 2.112 24.256h0.512c2.56 13.44 7.552 26.304 13.696 38.528 9.728 18.816 24 35.648 42.24 46.72 1.088 0.704 1.92 1.728 2.816 2.624 13.376 8.32 28.16 14.592 43.52 17.92 9.024 1.984 18.304 2.688 27.52 2.944 0 7.04 0 14.08 0.128 21.12 0.384 24.768 0.128 49.536 0.256 74.368z" /></svg>