<?xml version="1.0" standalone="no"?><!DOCTYPE svg PUBLIC "-//W3C//DTD SVG 1.1//EN" "http://www.w3.org/Graphics/SVG/1.1/DTD/svg11.dtd"><svg class="icon" width="240px" height="240.00px" viewBox="0 0 1024 1024" version="1.1" xmlns="http://www.w3.org/2000/svg"><path fill="#515151" d="M314.30168679 124.60272687s-1.1427653 67.42312481 57.1382409 92.56394998c0 0-267.40696735 300.5471471-266.26420333 297.11885247 0-2.28552932 14.85594256-202.26937315 209.12596243-389.68280245zM677.70089876 315.44445081c15.99870787-19.42700251 26.28359049-38.85400371 34.28294507-57.13824091-34.28294507-137.13177766-163.41536944-223.98190499-163.41536944-223.98190369 140.56007231 109.70542317 129.13242437 281.1201459 129.13242437 281.1201446z"  /><path fill="#515151" d="M337.15698263 242.30750332l5.71382396 5.71382398c17.14147188-18.28423719 27.42635579-30.85465042 27.4263558-30.85465045-57.13824091-25.14082646-57.13824091-92.56394998-57.13824091-92.56394998s-19.42700251 90.27842066 23.99806115 117.70477645z"  /><path fill="#515151" d="M924.53809959 590.47157424c-5.71382396-117.70477646-30.85465042-275.40632193-202.26937315-428.53680747 0 0 25.14082646 92.56394998-43.42506237 174.84301737 0 0 15.99870787-236.55231692-219.41084633-333.68732686 0 0-1.1427653 121.13307108-79.99353676 189.69895991-77.70800743 68.56588883-228.55296363 123.41860042-270.83526198 322.25967895s83.42183138 378.25515453 183.98513597 434.25063142c100.56330458 55.99547559 266.26420333 107.41989254 426.25127684 10.28488391 159.98707481-98.27777395 210.26872644-251.40826078 205.69766778-369.11303723z m-236.55231692 49.13888762L440.00581653 782.45606348c-22.85529585 12.57041323-50.28165165-3.42829463-50.28165163-28.5691198v-285.69120455c0-26.28359049 27.42635579-42.28229836 50.28165163-28.5691211l247.97996614 142.84560293c21.71253183 12.57041323 21.71253183 44.56782767 0 57.1382409z"  /></svg>