<?xml version="1.0" standalone="no"?><!DOCTYPE svg PUBLIC "-//W3C//DTD SVG 1.1//EN" "http://www.w3.org/Graphics/SVG/1.1/DTD/svg11.dtd"><svg class="icon" width="240px" height="174.55px" viewBox="0 0 1408 1024" version="1.1" xmlns="http://www.w3.org/2000/svg"><path fill="#515151" d="M704 992c248.128 0 470.592-155.712 666.944-462.72l11.072-17.28-11.072-17.28C1174.592 187.776 952.128 32 704 32S233.408 187.712 37.056 494.72L25.984 512l11.072 17.28C233.408 836.224 455.872 992 704 992z m0-896c218.688 0 419.2 137.28 601.856 416-182.656 278.72-383.168 416-601.856 416S284.8 790.72 102.144 512C284.8 233.28 485.312 96 704 96z"  opacity=".5" /><path fill="#515151" d="M704 768a256 256 0 1 0 0-512 256 256 0 0 0 0 512z m0-64a192 192 0 1 1 0-384 192 192 0 0 1 0 384z"  opacity=".5" /></svg>