<?xml version="1.0" standalone="no"?><!DOCTYPE svg PUBLIC "-//W3C//DTD SVG 1.1//EN" "http://www.w3.org/Graphics/SVG/1.1/DTD/svg11.dtd"><svg class="icon" width="240px" height="240.00px" viewBox="0 0 1024 1024" version="1.1" xmlns="http://www.w3.org/2000/svg"><path fill="#515151" d="M251.810909 14.429091c-51.2 3.723636-80.523636 9.774545-92.16 19.549091-3.258182 2.327273-6.050909 3.258182-6.050909 1.396363 0-7.912727-51.2 25.6-76.334545 50.269091C47.476364 114.967273 33.512727 137.309091 17.221818 181.527273c-8.843636 24.669091-8.843636 36.305455-8.378182 309.527272 0.465455 155.927273 1.861818 295.563636 3.258182 309.527273 3.258182 31.650909 18.618182 80.989091 27.927273 88.436364 3.723636 3.258182 6.516364 8.378182 6.516364 11.636363 0 9.309091 59.112727 68.887273 65.163636 65.163637 2.792727-1.396364 4.189091-0.465455 3.723636 2.327273-1.396364 5.12 32.116364 27.461818 44.683637 30.254545 2.792727 0.465455 11.636364 3.723636 19.083636 6.516364 27.461818 11.636364 68.887273 12.567273 353.745455 10.24 285.789091-2.792727 288.581818-3.258182 311.38909-13.498182 12.567273-5.585455 25.134545-10.24 28.392728-10.24 3.258182 0 11.170909-4.189091 17.221818-9.309091 6.516364-4.654545 13.032727-7.912727 13.963636-6.516364 3.258182 3.258182 78.661818-71.214545 77.265455-75.869091-0.465455-1.861818 1.861818-8.843636 5.12-14.429091 3.258182-6.050909 10.24-22.807273 15.825454-37.236363 9.309091-25.6 9.774545-35.84 11.636364-261.585455 0.930909-134.516364-0.465455-267.636364-3.258182-311.389091-5.12-74.938182-15.825455-128.465455-25.134545-122.88-2.792727 1.396364-3.258182 0.930909-1.861818-1.861818 5.585455-9.309091-18.152727-46.545455-48.872728-76.8-17.687273-17.221818-33.512727-31.185455-35.374545-30.72-1.861818 0.465455-9.309091-1.861818-17.221818-5.12-7.447273-3.258182-15.825455-6.516364-18.618182-6.981818-2.327273-0.930909-10.705455-4.189091-18.618182-6.981818-7.447273-3.258182-26.530909-7.912727-41.890909-10.24-34.443636-5.12-478.021818-4.189091-551.098182 0.930909z m296.96 200.145454c17.687273 6.050909 17.687273 7.447273 2.792727 19.083637-21.410909 16.756364-26.996364 33.978182-23.738181 73.076363 3.723636 37.236364 13.032727 58.647273 31.185454 69.818182 10.24 6.050909 10.24 6.516364 1.861818 12.567273-18.152727 13.498182-66.56 2.792727-77.265454-17.221818-6.981818-13.498182-7.912727-130.792727-0.465455-133.12 2.792727-1.396364 5.585455-5.12 5.585455-8.843637 0-6.981818 24.203636-20.014545 37.701818-20.48 4.189091 0 13.963636 2.327273 22.341818 5.12z m169.425455 3.723637c2.792727 2.792727 0 9.309091-10.24 19.083636-18.152727 18.618182-20.945455 29.789091-16.756364 71.214546 3.723636 37.701818 11.170909 55.389091 28.392727 67.025454 11.636364 7.447273 11.636364 7.912727 3.723637 13.963637-13.032727 9.774545-45.149091 7.447273-60.043637-4.189091-18.152727-13.963636-24.203636-32.581818-27.461818-80.523637-3.258182-50.734545 2.327273-69.818182 25.134546-85.178182 12.567273-8.378182 20.48-10.705455 34.443636-8.843636 9.774545 1.396364 20.014545 4.654545 22.807273 7.447273zM430.08 310.458182c1.396364 7.447273 3.723636 24.669091 5.585455 38.632727 3.258182 29.323636 12.567273 49.803636 26.996363 61.905455 43.752727 36.305455 103.330909 36.770909 139.170909 0.930909l12.567273-13.032728 13.032727 13.032728c17.221818 17.687273 39.563636 26.065455 68.887273 26.065454 28.392727 0 48.407273-8.843636 67.956364-31.185454 7.912727-8.843636 15.825455-15.825455 18.152727-15.825455 6.050909 0 27.927273 45.149091 34.909091 72.145455 13.032727 48.407273 5.12 110.778182-20.48 157.323636-31.185455 57.250909-96.814545 101.469091-163.84 110.312727-45.614545 5.585455-191.767273 5.585455-242.501818 0-39.098182-4.654545-40.96-4.189091-60.509091 7.447273-11.170909 6.516364-45.614545 26.065455-76.334546 43.752727l-55.854545 32.116364-1.396364-161.047273c-0.930909-172.683636 0.465455-191.301818 23.272727-238.778182C232.727273 387.258182 279.272727 341.178182 309.992727 324.887273c29.323636-15.825455 67.025455-26.065455 95.883637-26.530909 20.014545-0.465455 21.876364 0.465455 24.203636 12.101818zM474.763636 509.672727c-15.825455 19.083636 8.378182 71.214545 41.425455 89.832728 20.014545 11.170909 55.854545 13.498182 78.196364 5.12 35.374545-13.498182 66.094545-67.490909 52.596363-93.09091-10.705455-19.549091-37.236364-6.050909-37.236363 18.618182 0 5.12-5.585455 16.290909-12.567273 23.738182-27.461818 30.72-74.472727 20.014545-85.643637-19.549091-3.258182-11.170909-7.912727-22.807273-10.24-26.065454-6.050909-7.912727-19.549091-6.981818-26.530909 1.396363z" /></svg>