<?xml version="1.0" standalone="no"?><!DOCTYPE svg PUBLIC "-//W3C//DTD SVG 1.1//EN" "http://www.w3.org/Graphics/SVG/1.1/DTD/svg11.dtd"><svg class="icon" width="240px" height="240.00px" viewBox="0 0 1024 1024" version="1.1" xmlns="http://www.w3.org/2000/svg"><path fill="#515151" d="M443.29 228.27c26.49-12.88 56.27-18.85 85.68-17.46 35.21 1.65 69.82 14.05 98.05 35.17 28.01 21 49.64 50.37 61.33 83.38-12.53 3.14-25.14 6.42-36.81 12.08-13.41 5.85-26.21 13.26-37.48 22.63-15.88 11.72-29.35 26.64-39.69 43.44-12.28 17.34-19.64 37.63-24.72 58.11-2.17 12-3.5 24.18-3.83 36.38-0.08 15.63 1.74 31.28 5.63 46.43 1.49 5.58 3.5 11.02 4.82 16.66-9.74 0.82-19.51 1.19-29.29 1.18-37.54 1.31-75.51-9.37-106.5-30.69-29.99-20.24-53.44-50.02-66.24-83.85-14.49-37.58-15.39-80.1-2.83-118.35 14.46-45.71 48.72-84.43 91.88-105.11m64 68.95c-16.36 2.22-29.03 18.47-27.21 34.88 0.95 12.58 9.97 24.07 21.98 27.93 13.67 4.84 30.07-0.89 37.68-13.24 8.06-12.1 6.39-29.42-3.72-39.83-7.23-7.7-18.31-11.49-28.73-9.74z"  /><path fill="#515151" d="M258.37 79.08c4.1 1.81 7.17 5.23 10.9 7.65 45.87 33.52 102.94 51.41 159.74 49.91 13.81 0.24 27.25-3.32 40.92-4.71 40.84-4.5 82.92 2.44 120.03 20.12 53.15 24.93 95.28 72.07 114.4 127.54 5.08 15.09 9.27 30.68 10.46 46.6-8.85 0.77-17.72 1.58-26.47 3.17-11.69-33.01-33.32-62.38-61.33-83.38-28.23-21.12-62.84-33.52-98.05-35.17-29.41-1.39-59.19 4.58-85.68 17.46-43.16 20.68-77.42 59.4-91.88 105.11-12.56 38.25-11.66 80.77 2.83 118.35 12.8 33.83 36.25 63.61 66.24 83.85 30.99 21.32 68.96 32 106.5 30.69 9.78 0.01 19.55-0.36 29.29-1.18 18.05-1.15 35.64-6.15 52.6-12.2 6.87-2.39 13.44-5.55 19.95-8.78 11.58-6.22 23.12-12.67 33.47-20.84 21.07-15.39 38.92-35.05 53.01-56.97 3.91-6.72 8.44-13.07 11.92-20.04 16.35-32.95 25.44-69.48 26.19-106.26 0.76-39.42-7.73-79.04-24.86-114.57-7.73-16.42-17.73-31.65-28.63-46.12 16.62 8.72 32.21 19.3 47.26 30.49 57.43 43.06 102.38 102.31 128.99 168.93 24.5 61.9 33.14 130.05 24.51 196.08-6.26 48.47-21.72 95.74-45.33 138.54-2.68 4.69-4.93 9.7-8.51 13.81-5.74 7.32-10.13 15.59-15.58 23.13-8.56 11.97-17.63 23.58-27.42 34.56-2.52 2.78-5.04 5.57-7.14 8.68-7.02 8.96-15.86 16.29-24.08 24.1-37.36 33.4-81.09 59.73-128.27 76.68-58.39 21.11-121.78 28.36-183.4 20.6a394.532 394.532 0 0 1-93.28-23.59c-68.99-26.73-130.17-73.31-174.19-132.79-54.57-73-81.95-165.52-76.82-256.45 4.83-92.7 44.15-183.06 108.45-249.99 1.57-1.57 2.94-3.32 4.34-5.05-2.73-17.87-4.3-36.01-3.29-54.1 1.43-39.81 12.91-79.07 32.21-113.86m469.94 488.04c-14.69 1.59-28.72 7.8-40.27 16.93-14.07 11.28-24.08 27.51-27.73 45.18-3.73 16.87-1.5 34.92 5.95 50.49 11.61 24.96 37.3 42.57 64.75 44.47 2.61 0.26 5.11-0.69 7.45-1.73 27.11-11.99 51.75-29.37 72.4-50.61 2.47-2.57 2.91-6.26 3.7-9.58 3.21-13.98 2.26-28.84-2.31-42.42-6.29-18.34-19.5-34.29-36.55-43.57-14.34-7.84-31.16-11.26-47.39-9.16z"  /><path fill="#515151" d="M507.29 297.22c10.42-1.75 21.5 2.04 28.73 9.74 10.11 10.41 11.78 27.73 3.72 39.83-7.61 12.35-24.01 18.08-37.68 13.24-12.01-3.86-21.03-15.35-21.98-27.93-1.82-16.41 10.85-32.66 27.21-34.88zM728.31 567.12c16.23-2.1 33.05 1.32 47.39 9.16 17.05 9.28 30.26 25.23 36.55 43.57 4.57 13.58 5.52 28.44 2.31 42.42-0.79 3.32-1.23 7.01-3.7 9.58-20.65 21.24-45.29 38.62-72.4 50.61-2.34 1.04-4.84 1.99-7.45 1.73-27.45-1.9-53.14-19.51-64.75-44.47-7.45-15.57-9.68-33.62-5.95-50.49 3.65-17.67 13.66-33.9 27.73-45.18 11.55-9.13 25.58-15.34 40.27-16.93zM831.26 750.29c5.45-7.54 9.84-15.81 15.58-23.13 9.4 16.09 19.74 31.63 29.48 47.52 15.6 24.79 31.09 49.64 46.67 74.44-16.13 10.8-32.26 21.6-48.46 32.3-1.12 0.94-1.9-0.76-2.57-1.36-25.03-28.89-50.03-57.81-75.26-86.53 2.1-3.11 4.62-5.9 7.14-8.68 9.79-10.98 18.86-22.59 27.42-34.56z"  /><path fill="#515151" d="M688.35 329.36c8.75-1.59 17.62-2.4 26.47-3.17l0.72-0.06c2.8 27.44 1.68 55.45-5.41 82.2-2.33 8.1-4.26 16.36-7.62 24.12-4.72 11.28-9.33 22.72-15.97 33.05-5.46 9.01-10.81 18.2-17.92 26.03l-1.19 0.04c-3.49-4.56-5.98-9.85-10-14.01-3.78-3.89-7.35-8.11-11.94-11.07-7.51-5.11-15.5-9.86-24.49-11.7-14.84-4.06-30.98-3.59-45.36 1.96-1.93 1.8-1.51 4.81-1.83 7.22 0.16 13.27 2.18 26.87 8.44 38.75 2.74 6.54 7.31 12 11.38 17.73 6.41 6.99 13.65 13.36 22.06 17.88 4.26 2.14 8.29 5.11 13.13 5.78-6.51 3.23-13.08 6.39-19.95 8.78-16.96 6.05-34.55 11.05-52.6 12.2-1.32-5.64-3.33-11.08-4.82-16.66-3.89-15.15-5.71-30.8-5.63-46.43 0.33-12.2 1.66-24.38 3.83-36.38 5.08-20.48 12.44-40.77 24.72-58.11 10.34-16.8 23.81-31.72 39.69-43.44 11.27-9.37 24.07-16.78 37.48-22.63 11.67-5.66 24.28-8.94 36.81-12.08z"  /></svg>