<?xml version="1.0" standalone="no"?><!DOCTYPE svg PUBLIC "-//W3C//DTD SVG 1.1//EN" "http://www.w3.org/Graphics/SVG/1.1/DTD/svg11.dtd"><svg class="icon" width="240px" height="240.00px" viewBox="0 0 1024 1024" version="1.1" xmlns="http://www.w3.org/2000/svg"><path fill="#515151" d="M866.304 0H157.696C71.168 0 0 69.632 0 156.16v711.168c0 87.04 71.168 156.672 157.696 156.672h709.12c86.528 0 157.184-69.632 157.696-156.16v-711.68c-1.024-86.528-71.68-156.16-158.208-156.16zM808.96 571.392c-71.168 61.952-202.752 160.256-387.072 233.984-48.64 19.456-102.912-11.264-111.616-62.464-0.512-2.048-0.512-4.608-1.024-6.656 168.96-56.32 289.28-131.584 354.816-178.688 33.792-24.576 34.816-67.584 2.56-93.184-115.2-91.648-264.192-147.968-356.352-176.64-31.744 184.832-16.896 348.672-0.512 448.512-0.512 0-1.024 0.512-1.536 0.512-44.544 14.848-94.72-8.704-102.4-48.128-15.872-76.8-30.72-206.848 0.512-354.304 8.192-38.4 56.32-61.44 100.864-48.128 1.024 0.512 2.048 0.512 3.584 1.024l1.536-7.68c8.704-50.176 61.44-80.384 109.056-62.464 99.84 36.864 264.192 110.592 390.656 232.448 34.304 33.792 33.28 90.112-3.072 121.856z m-425.472 41.984V410.624c0-20.48 13.312-27.136 29.696-14.848l122.368 93.184c16.384 12.288 16.384 32.768 0 45.056l-122.368 93.184c-16.384 12.8-29.696 6.144-29.696-13.824z"  /></svg>