<?xml version="1.0" standalone="no"?><!DOCTYPE svg PUBLIC "-//W3C//DTD SVG 1.1//EN" "http://www.w3.org/Graphics/SVG/1.1/DTD/svg11.dtd"><svg class="icon" width="240px" height="240.00px" viewBox="0 0 1024 1024" version="1.1" xmlns="http://www.w3.org/2000/svg"><path fill="#515151" d="M876.8 782.1c-7-16.2-30.5-21.3-57.7-27.1-10-2.1-20.4-4.4-29.7-7.2-0.8-0.2-1.7-0.5-2.5-0.8-13.9-4.1-32.1-11.6-41.4-27.9-12.9-22.8 31.7-107.4 31.7-107.4S833 515 827.5 418.5c0-194.4-131.7-352-366-352-202.1 0-361.2 160.8-366 352-5.7 226.3 146.3 352 366 352h0.2c5.7 0 8.3 7.1 3.8 10.7-8.2 6.6-17.3 13.6-26.7 20-11.5 7.9-23.9 12.3-35.8 16.6-12.9 4.6-25.2 9-33.6 17.4-10 9.9-13 23.6-9 41.9 2.5 11.7 9.4 20.1 19.8 24.2 20.7 8.2 55.3-0.9 105.6-27.6 4.5-2.4 8.9-4.8 13.2-7.2 3.6-2 7.6 1.9 5.7 5.5-9.4 18.4-16.5 38.1-14.5 53.3 1.1 8.5 5 15.5 11.3 20.2 14.8 11.1 30.9 14.3 46.6 9.2 16.9-5.5 33.3-20.4 49.2-44.5 2.1-3.3 7.2-2 7.6 1.9 1.4 13 5 23.7 10.6 31.9 8.6 12.4 22 19.2 38.9 19.5h0.8c27.4 0 47.4-28.1 59.4-83.5 4.5-20.9 7-41.6 8.4-56.5 0.3-2.9 3.3-4.6 5.9-3.4 11.4 5.3 26.8 11.6 43.6 16 14.2 3.7 26.5 5.3 37.3 5.3 34.9 0 53.5-16.6 63.3-32.8 5.8-9.6 7.1-18.5 3.7-26.5z m-20.9 16.2c-33.2 54.8-135.3-4.8-136.3-5.4-3-1.8-6.8-1.9-9.9-0.2s-5.1 4.9-5.2 8.4c-1.8 46.6-16.4 142.4-49.5 142.4h-0.3c-10.6-0.2-17.9-3.7-22.8-10.8-16-23.3-3.9-78 4.9-106.4 2-5.8 3.1-9.5 3.3-9.9 1.6-5.2-1.3-10.7-6.4-12.4-5.2-1.7-10.7 1-12.6 6.1-0.1 0.4-1.5 4.1-3.3 10.1-12.3 35.6-42.3 104.6-75.9 115.5-9.5 3.1-18.7 1-28.3-6.2-1.2-0.9-3-2.7-3.5-6.9-2.8-21.1 25.7-67.2 44.4-91.3 3-3.9 2.8-9.4-0.6-13-3.4-3.6-8.9-4.1-13-1.3-0.3 0.2-30.1 20.8-64.6 39.1-60 31.9-82 29.2-88.7 26.6-2.8-1.1-6.2-3.2-7.6-9.8-4.9-22.6 3.3-26.7 29.8-36.2 12.5-4.5 26.7-9.6 40.4-18.9 27.1-18.6 51.3-40.7 60.5-49.4 0.3-0.3 0.6-0.6 0.8-1 6.8-12.1-0.4-18.4-9.9-17.9 0.1-0.1 0.2-0.2 0.3-0.2 0 0-26.3 1.2-40.3 1.2-55.6 0-106.6-8.3-151.6-24.7-44.5-16.2-82.4-40.2-112.6-71.1-27.3-28-48.2-61.7-61.9-100.1-14.4-40.3-21.1-85.9-19.9-135.6 1.1-44.3 10.9-87.3 29-128 17.7-39.7 42.6-75.3 73.9-105.9 65.1-63.6 151.4-98.6 243-98.6 105.8 0 194.5 33.6 256.6 97.1 28.9 29.6 51.3 64.9 66.5 105 15.2 40 22.9 83.7 22.9 129.9 0 52.7-9.1 101-27.2 143.5-5.9 14-16.9 33.4-19.9 40.5-3 7.1-27.3 62.7-27.3 62.7-8.9 22.2-12.3 45.4-6.5 61 10 26.9 38.9 35.5 54.5 40.1 0.9 0.3 1.7 0.5 2.5 0.7 10.1 3 20.9 5.3 31.3 7.6 11.6 2.5 22.6 4.8 31 7.9 9.8 3.5 12 6.5 12.5 7.6 0.7 1.5-0.2 4.5-2.5 8.2z"  /><path fill="#515151" d="M344.1 641.6m-41.1 0a41.1 41.1 0 1 0 82.2 0 41.1 41.1 0 1 0-82.2 0Z"  /><path fill="#515151" d="M732.6 344.6m-41.1 0a41.1 41.1 0 1 0 82.2 0 41.1 41.1 0 1 0-82.2 0Z"  /><path fill="#515151" d="M648.8 366.8c-2.3-5-8.2-7.2-13.2-4.9s-7.2 8.2-4.9 13.3c0.1 0.3 13.5 30 14.7 67.7 1.5 49.3-17.7 88.7-57.1 117-39.6 28.5-82.9 36.3-128.6 23.3-34.7-9.9-58-28.7-58.2-28.9-4.3-3.5-10.6-2.9-14.1 1.4s-2.9 10.6 1.4 14.1c1.1 0.9 26.2 21.3 64.7 32.5 13.6 3.9 29.9 7 48 7 29.5 0 63.7-8 98.5-33 44.7-32.1 67.3-78.7 65.4-134.6-1.6-41.7-16-73.5-16.6-74.9zM401.8 475c10.5 0 18.9-8.5 18.9-18.9 0-5.7-2.5-10.8-6.6-14.3l-8.1-8.6c-2-2.1-5.2-2.1-7.2-0.2l-8.4 8c-1.1 0.9-2.2 1.9-3.1 3L248 576.2c-4 3.8-4.2 10.1-0.4 14.1 3.8 4 10.1 4.2 14.1 0.4l127.1-120.8c3.5 3.1 8 5.1 13 5.1zM676.4 230c-1.7-2.3-4.9-2.7-7.2-1l-9.3 7c-1.2 0.7-2.4 1.6-3.4 2.6L502.9 353.8c-4.4 3.3-5.3 9.6-2 14s9.6 5.3 14 2l140.3-105.2c3 3.5 7.2 5.9 12.2 6.5 10.4 1.2 19.8-6.2 21-16.6 0.7-5.7-1.3-11.1-4.9-15l-7.1-9.5z"  /></svg>